<svg xmlns="http://www.w3.org/2000/svg" viewBox="0 0 64 64"><path d="M13.205 25.511c-2.762-1.441-6.707-4.565-5.976-10.455 0 0-6.298 5.772-1.3 13.31 1.449 2.186 2.903 3.435 4.115 4.18a4.01 4.01 0 0 1 .241-.731l2.428-5.494c.131-.295.303-.562.494-.81ZM17.18 26.11a2 2 0 0 0-2.64 1.02l-2.43 5.5c-.45 1.01 0 2.19 1.01 2.64l1.06.47c.19-3.5 1.4-6.77 3.36-9.47l-.36-.16ZM56.772 15.057c.726 5.854-3.217 8.971-6 10.421.201.256.379.533.516.838l2.432 5.506c.106.237.182.48.239.725 1.211-.745 2.665-1.993 4.115-4.18 4.998-7.539-1.3-13.31-1.3-13.31ZM49.46 27.13a2 2 0 0 0-2.64-1.02l-.36.16c1.96 2.7 3.17 5.97 3.36 9.47l1.06-.47c1.01-.45 1.46-1.63 1.01-2.64l-2.43-5.5ZM16.15 40.93h8.84c1.11 0 2.01-.9 2.01-2V21.7c-6.3 2.08-10.85 8.03-10.85 15.03v4.2ZM37 21.7v17.23c0 1.1.9 2 2.01 2h8.84v-4.2c0-7-4.55-12.95-10.85-15.03Z" fill="white"/><path d="M35 38.93V21.18c.683.13 1.344.317 1.993.532a4.951 4.951 0 0 0-4.945-4.817h-.097a4.952 4.952 0 0 0-4.945 4.817c.649-.215 1.31-.402 1.993-.532v17.75c0 2.21-1.8 4-4.01 4h-8.84v6.01h31.7v-6.01h-8.84c-2.21 0-4.01-1.79-4.01-4Zm-13.015 8.01a1.002 1.002 0 1 1 0-2.004 1.002 1.002 0 0 1 0 2.004Zm5.007 0a1.002 1.002 0 1 1 0-2.004 1.002 1.002 0 0 1 0 2.004Zm5.008 0a1.002 1.002 0 1 1 0-2.004 1.002 1.002 0 0 1 0 2.004Zm0-5.007a1.002 1.002 0 1 1 0-2.004 1.002 1.002 0 0 1 0 2.004Zm0-5.008a1.002 1.002 0 1 1 0-2.004 1.002 1.002 0 0 1 0 2.004Zm0-5.007a1.002 1.002 0 1 1 0-2.004 1.002 1.002 0 0 1 0 2.004Zm0-5.008a1.002 1.002 0 1 1 0-2.004 1.002 1.002 0 0 1 0 2.004Zm5.008 20.03a1.002 1.002 0 1 1 0-2.004 1.002 1.002 0 0 1 0 2.004Zm5.007-2.003a1.002 1.002 0 1 1 0 2.004 1.002 1.002 0 0 1 0-2.004Z" fill="white"/></svg>